PathFileType	4	(X/Y/Z)	Patient4_TMGait_0pt5_02_left_27.trc.trc
DataRate	CameraRate	NumFrames	NumMarkers	Units	OrigDataRate	OrigDataStartFrame	OrigNumFrames
74.866310160428	74.866310160428	4	33	mm	74.866310160428	18	       141
Frame#	Time	Sacral			L.Shoulder			Chest			R.Shoulder			Neck			R.ASIS			L.ASIS			R.Thigh.Superior			R.Thigh.Lateral			R.Thigh.Inferior			R.Patella			L.Thigh.Superior			L.Thigh.Lateral			L.Thigh.Inferior			L.Patella			L.Shank.Superior			L.Shank.Lateral			L.Shank.Inferior			R.Shank.Superior			R.Shank.Lateral			R.Shank.Inferior			R.Heel			R.Midfoot.Superior			R.Midfoot.Lateral			R.Toe			L.Heel			L.Midfoot.Lateral			L.Midfoot.Superior			L.Toe			L.Elbow			L.Wrist			R.Elbow			R.Wrist			
		X1	Y1	Z1	X2	Y2	Z2	X3	Y3	Z3	X4	Y4	Z4	X5	Y5	Z5	X6	Y6	Z6	X7	Y7	Z7	X8	Y8	Z8	X9	Y9	Z9	X10	Y10	Z10	X11	Y11	Z11	X12	Y12	Z12	X13	Y13	Z13	X14	Y14	Z14	X15	Y15	Z15	X16	Y16	Z16	X17	Y17	Z17	X18	Y18	Z18	X19	Y19	Z19	X20	Y20	Z20	X21	Y21	Z21	X22	Y22	Z22	X23	Y23	Z23	X24	Y24	Z24	X25	Y25	Z25	X26	Y26	Z26	X27	Y27	Z27	X28	Y28	Z28	X29	Y29	Z29	X30	Y30	Z30	X31	Y31	Z31	X32	Y32	Z32	X33	Y33	Z33	

18	34.697071428571	614.192739053564	1008.230460490162	524.379756267353	759.799729089335	1444.428552270324	346.091058179563	888.506958644393	1363.100262419285	481.160856498945	838.600370220993	1426.505653081322	671.621609044853	785.757532823552	1494.847625560263	498.764133589448	849.931414517831	939.187229512278	610.910734595316	805.120471309480	964.993642048076	339.313548201156	853.523677065171	730.035323912949	582.993540175656	755.115877879824	632.600439543695	646.525549739526	816.312910843685	569.848962507034	565.270612605512	801.227093851255	484.564906658862	569.816971028747	880.943186422959	779.294202739060	364.888058909965	833.437212114657	650.886257517031	288.873569348950	937.019038259639	591.143474423537	348.861504689349	966.756916843256	530.968874139098	344.218880826774	957.413626821081	461.863070489733	333.350618807361	907.235745385578	325.302540302501	281.894823792961	1007.118060474682	237.815259780995	335.375621419295	766.004694278953	399.793505694303	574.849082994175	685.787281387864	300.668963065604	631.871223180271	722.845048205986	204.396403766042	567.383804905603	579.860852851040	43.187192367815	528.522336214512	750.940778024294	96.483745882101	568.506361370142	661.329285186504	36.316911441969	605.262935722393	869.494196161803	43.463027286121	599.831801387514	946.825852272421	47.855041650766	375.022638971453	1020.507032725495	59.831966198769	295.256572478282	1079.156253194682	147.801677038983	312.770637196724	1215.802353273177	137.766126385757	288.921811736375	609.866821875931	1123.754864870746	246.589976088781	593.157535401667	861.602722408761	258.497659930519	956.736191708746	1096.321077219876	756.134476171606	1191.181452328210	1071.992502070485	655.578162320006	
19	34.710428571429	615.200179580662	1007.503587349610	523.396599207507	759.818678937532	1443.643705947707	344.754107948993	888.806458139914	1362.460842050551	479.660358913205	838.937509251923	1425.821612915654	670.103965196564	785.825709219846	1494.052254320058	497.385689444673	850.757105717541	938.587055002241	610.260774596658	806.251952006401	963.732116474972	338.432474513292	852.607546789503	728.973636712898	582.814951699368	752.924804512235	632.358145846104	646.261835615798	813.644176730817	568.929168026769	565.262235645264	797.726054816996	483.628338451352	569.705938107583	882.249629892916	778.212341103118	364.147038734716	833.638643099590	648.735096018416	289.725688650973	938.031073252726	589.735036748434	348.644563885304	967.597611113918	529.424648986794	344.606482389383	958.116699805212	460.058476755305	334.506582513934	907.430740660644	323.336303316051	284.394898991713	1007.454503184721	236.084875377513	337.774528312187	761.798549690036	399.281042839911	574.759778708458	680.791420932641	300.811202931991	631.871076146492	717.056191907346	204.168322418149	567.367782476913	573.135274869529	43.307059189927	528.582175345868	744.301083800942	96.499646365817	568.662206068399	654.583276544945	36.300746746263	605.272139516570	862.789323346024	43.255592804935	599.873497354305	947.112599666699	46.871869620005	379.064164002648	1020.026448641940	58.193213536417	298.552696570740	1079.252651999083	145.773912364760	315.176014380038	1215.533348829178	134.915437168207	290.066825421006	608.567484081611	1123.998181310675	245.211160059799	592.656099940613	861.684115024352	258.912356959265	961.838497168172	1097.663696878907	752.756639112251	1195.739337655941	1086.369205462626	649.729346507394	
20	34.723785714286	616.357452674009	1006.584093497160	522.101708054565	759.927356612954	1442.679234673920	343.207866685513	889.135676684140	1361.724574858600	478.059947090947	839.119472641204	1425.028302610308	668.446854330288	785.853166268965	1493.114206767335	495.830119794965	851.665620687886	937.861324997041	609.576600360866	807.756655082193	962.262624700398	337.487697925116	851.920172074494	727.810786416923	582.607427433697	751.019619638871	631.991166362685	645.915347973625	811.323527149219	567.905336868047	565.165051775201	794.547661055115	482.559502947892	569.495261659167	883.911926255818	776.854595612318	363.461744753379	834.175536833534	646.379469890965	290.565773129070	939.211617330356	588.050385192585	348.585690373677	968.504643211646	527.338221369940	345.109620758410	958.586661565088	457.598129794038	335.773357654349	906.671561359962	320.991178869383	286.985141165846	1006.286826056964	233.430917970731	340.357668936249	757.891832912925	398.624577456666	574.597278811185	676.026576601113	300.876958159920	631.826819580982	711.371561781012	203.846196105606	567.307077973773	566.416312761826	43.404644859996	528.640475875433	737.646818719696	96.493927565719	568.797150433916	647.840038750017	36.269868119288	605.283492413761	856.082615429223	43.033868964512	599.917930750761	944.802306041114	45.422856735525	383.091567187830	1016.981454344885	55.864551558247	301.830835873790	1077.349301034335	142.530635306892	317.830333919008	1213.164575929102	129.986821661416	291.345197574166	607.684600966201	1123.927742804389	243.470337505101	593.083922203200	861.425084168555	258.805876757864	966.641131018203	1098.917640001852	749.384941805531	1199.409555829041	1099.891336679295	644.228868856193	
21	34.737142857143	617.665292936085	1005.474041818377	520.498990106248	760.153878272667	1441.526497091589	341.437552216084	889.511558068153	1360.889857240012	476.356945828177	839.156939357916	1424.137209305417	666.642273876695	785.862534753611	1492.037135060102	494.076450201618	852.664620983962	936.999527881900	608.848086140830	809.621128575500	960.597551924363	336.483631933617	851.500892273541	726.536318710962	582.364683560402	749.440752222988	631.479482559909	645.464273214612	809.384401103495	566.761297900394	564.954338402211	791.725452408184	481.342420424053	569.154656889323	885.845493684768	775.171816714096	362.863729339777	834.980948947165	643.863354524782	291.331307865301	940.432633507964	586.069951027510	348.706093565482	969.335030532163	524.758690710968	345.762056455076	958.786632271725	454.585051912950	337.115203859412	905.154592347046	318.302063171902	289.553785824930	1003.928546004913	230.020006041156	343.046177528884	754.304963863909	397.803839912626	574.333373432061	671.514697204387	300.857842742594	631.717379836925	705.800241710661	203.423365432591	567.188508908400	559.705799881173	43.484393404165	528.695073392709	730.976285582554	96.465210225264	568.901489228472	641.102407868013	36.229323124590	605.297157131797	849.374762559588	42.788887232073	599.967233655676	940.377971896436	43.658513054896	386.910692914063	1011.961861622089	53.017291800835	304.999692331241	1073.963015901941	138.255563949611	320.733662065252	1209.241913577054	123.207543616717	292.970168678420	607.245839252470	1123.510528325306	241.385651204363	594.396872515725	860.806770191709	258.165120724121	971.127969956449	1100.080636925304	746.087924196502	1202.293393522526	1112.429781761005	639.115917022396	
